<?xml version="1.0" encoding="UTF-8"?><svg id="Layer_1" xmlns="http://www.w3.org/2000/svg" viewBox="0 0 763.75 810.02"><defs><style>.cls-1{fill:#e95679;}.cls-2{fill:#1e6296;}.cls-3{fill:#80358a;}.cls-4{fill:#f3bc14;}</style></defs><rect class="cls-1" x="262.3" y="341.77" width="127.48" height="127.48" transform="translate(-192.82 366.5) rotate(-46.9)"/><polygon class="cls-3" points="763.75 392.46 763.75 589.84 566.37 392.46 763.75 392.46"/><path class="cls-4" d="M133.39,409.36c0-152.42,109.76-284.5,262.19-284.5s180.64,59.72,195.9,77.11l91.39-91.39C610.35,42,512.56,0,404.93,0,181.3,0,0,181.3,0,404.93c0,171.29,40.85,202.63,107.63,274.82l91.55-91.55c-41.02-48.24-65.79-110.58-65.79-178.84h0Z"/><path class="cls-2" d="M656.12,533.07c-11.65,23.13-26.25,44.3-43.64,63.17-5.25,5.74-10.66,11.16-16.41,16.41-49.22,45.12-114.69,72.85-186.71,72.85s-138.48-27.89-187.7-73.67l-91.06,91.06c72.19,66.45,168.5,107.14,274.33,107.14s205.42-42,277.94-110.58c5.58-5.25,11.16-10.83,16.41-16.41,17.39-18.38,33.14-38.56,46.76-59.89l-90.08-90.08h.16Z"/></svg>