<?xml version="1.0" encoding="UTF-8"?><svg id="Layer_1" xmlns="http://www.w3.org/2000/svg" viewBox="0 0 396.76 867.27"><defs><style>.cls-1{fill:#f1bb15;}.cls-2{fill:#1e6296;}.cls-3{fill:#80358a;}.cls-4{fill:#fff;stroke:#1d1e1c;stroke-miterlimit:10;stroke-width:2px;}.cls-5{fill:#e85679;}</style></defs><path class="cls-2" d="M189.36,617.44c-12.69,10.72-25.38,19.18-40.33,25.38-5.64,2.26-11.56,3.1-17.77,3.1-11.28.56-20.59-3.67-28.2-11.56-4.51-4.51-8.74-9.31-11.84-15.23-7.9-13.54-12.69-28.48-14.38-44.28,13.54,2.26,26.79,3.38,39.77,3.38l6.77,10.43c1.97,3.1,4.79,5.64,7.9,7.61,2.26,1.41,4.51,2.54,6.49,3.1,26.23,5.92,59.79-29.89,76.43-47.38,16.64-17.49,33.84-36.38,48.23-56.69,4.79-6.77,16.64-17.49,23.97-9.31,5.92,6.77,6.49,15.79,5.92,24.82-.85,12.41-7.33,22.28-12.69,33-32.71,66.28-59.51,134.24-81.22,205.03-8.46,27.07-16.64,53.3-22.56,80.66-2.26,10.43-5.36,33.28-16.64,36.66-5.64,1.69-11.56,1.69-16.36-1.97-3.95-3.1-7.05-9.59-7.33-14.67-1.13-16.92,1.13-32.15,5.08-48.23,7.9-33,17.49-64.58,29.89-96.45l42.02-108.01-23.97,20.31h0l.85.28Z"/><path class="cls-3" d="M361.96,200.32c5.08-13.26,7.9-25.1,9.59-38.36,1.13-9.31.28-18.9-6.77-25.38-15.23-13.26-42.87,12.69-53.87,22.56-4.51,3.95-8.46,8.18-12.41,12.69l-15.79,17.2c-27.07,29.61-49.07,63.17-69.94,97.58l-12.41-11.28-18.9-15.79c29.89-47.66,64.3-93.91,105.76-131.7,19.46-17.77,61.48-45.41,85.74-25.1,20.31,16.92,25.38,46.53,23.41,71.07l-1.41,15.23c-4.79,56.12-43.71,124.94-80.09,167.24-5.36,6.2-11,11.56-17.2,16.64-6.2,5.08-14.1,8.74-21.43,5.92-11.28-4.23-12.13-22.56-7.61-30.46,5.08-8.74,11.28-15.23,17.77-22.84,32.43-37.23,58.38-78.97,76.15-125.78h0l-.56.56Z"/><path class="cls-5" d="M132.95,453.3c-10.43,30.46-20.31,62.61-21.43,95.61-13.26-2.54-25.1-8.46-35.25-17.2,3.1-36.66,11.56-71.92,23.97-106.89,11.56-33.28,25.38-64.3,41.46-96.17,11.28,8.18,22,17.2,32.15,27.36-15.51,31.87-29.33,63.46-40.89,97.02h0v.28Z"/><path class="cls-1" d="M209.66,536.78c-27.92,30.46-62.89,38.64-103.5,37.23-34.41-1.13-67.97-11.84-96.17-30.74-14.1-9.59-9.59-25.38-8.18-41.18l1.13-12.97,1.13-17.49,1.13-18.61.56-28.2.85-12.13c0-2.82,1.69-7.05,4.23-7.05,4.51,3.1,4.51,8.46,4.79,13.54,3.1,40.89,20.02,78.68,48.79,107.73,20.31,20.31,43.43,30.74,72.76,27.36,24.54-2.82,46.25-16.36,59.79-36.95,30.74-46.82,30.74-108.58-7.33-151.16-16.92-18.9-35.82-34.41-56.4-49.35-20.59-14.95-62.33-44-78.12-62.33C20.15,213.86,4.92,178.33,9.43,123.9c2.82-32.71,14.95-62.61,36.95-87.15C64.99,16.16,90.65,3.19,118.85.65c11.56-1.13,22.84-.56,34.12,0,24.82,1.69,46.53,11.84,64.58,27.92,8.46,7.61,5.36,5.64,7.61,28.2.56,6.49.28,12.41,0,18.9l-.85,29.89-1.13,25.95c0,.85-1.41,3.1-2.26,3.1s-2.26-1.69-2.26-2.82c-5.08-28.77-15.23-65.99-36.1-87.15-8.18-8.46-16.36-15.23-27.64-19.74-20.87-8.46-45.69-8.74-66.56,2.26-32.71,16.92-51.33,55.56-47.94,92.22.85,19.18,8.46,36.95,20.59,51.33,15.79,19.18,50.48,44.56,71.63,59.22,22.28,15.51,43.15,31.02,63.74,48.51,47.1,39.77,61.76,89.4,57.53,150.04-2.54,37.51-18.05,80.94-43.43,109.14h0l-.85-.85Z"/><path class="cls-4" d="M23.25,654.1c17.49-11.28,18.61-12.97,27.64-31.02,0-5.64.28-12.13-5.36-14.67l-12.13-1.13c-5.64-.56-8.46-7.33-8.74-11.84,0-5.36,3.1-10.15,8.18-12.97,9.02-5.08,18.61-.28,25.38,6.77,22.56,23.97-6.49,64.3-32.71,72.2l-2.26-7.33h0Z"/></svg>