<?xml version="1.0" encoding="UTF-8"?><svg id="Layer_1" xmlns="http://www.w3.org/2000/svg" viewBox="0 0 1105.74 915.98"><defs><style>.cls-1{stroke:#f5f5f5;}.cls-1,.cls-2{stroke-miterlimit:10;}.cls-2{fill:#f5f5f5;stroke:#3a60a9;stroke-width:.75px;}</style></defs><path d="M221.39,566.87c-29.36,32.27-66.33,40.72-109.34,39.33-36.2-1.17-71.71-12.6-101.47-32.53-15-10.04-10.06-26.69-8.73-43.39l1.1-13.81,1.15-18.34,1.17-19.62.69-29.73.87-12.82c.19-2.88,1.73-7.37,4.42-7.47,4.88,3.21,4.62,9,5.01,14.28,3.15,43.17,21.11,82.94,51.45,113.58,21.38,21.59,45.73,32.35,76.65,28.77,25.9-3,48.78-17.29,63.13-39.1,32.51-49.42,32.36-114.57-7.63-159.65-17.81-20.08-37.9-36.32-59.65-52.01-22.21-16.02-65.85-46.51-82.47-65.79C20.9,225.81,4.79,188.23,9.57,130.64c2.87-34.62,15.79-66.13,39.06-92.02C68.26,16.77,95.42,3.19,124.99.64c12.15-1.05,24.16-.67,36.04.09,26.24,1.67,49.21,12.37,68.06,29.53,8.86,8.07,5.61,5.94,7.96,29.64.69,6.95.32,12.98.1,19.78l-1.01,31.6-1.07,27.29c-.04.96-1.52,3.19-2.43,3.26s-2.27-1.91-2.46-2.99c-5.4-30.41-16.23-69.5-38.08-92-8.56-8.82-17.28-16.03-29.11-20.83-22.16-8.99-48.33-9.12-70.32,2.27-34.62,17.93-54.05,58.75-50.62,97.22.94,20.22,8.8,38.9,21.6,54.3,16.7,20.1,53.25,46.94,75.45,62.53,23.38,16.41,45.54,32.7,67.33,51.11,49.77,42.05,65.18,94.45,60.77,158.3-2.74,39.68-18.89,85.55-45.82,115.13Z"/><path d="M199.98,651.98c-13.29,11.27-26.92,20.36-42.56,26.84-5.96,2.47-12.34,3.12-18.65,3.4-11.77.54-21.65-3.74-29.69-12.09-4.71-4.89-9.16-9.92-12.65-15.99-8.23-14.3-13.52-30.09-15.24-46.73,14.32,2.47,28.25,3.59,41.99,3.51l10.45,16.17c3.95,2.09,8.03,5.26,12.02,6.14,27.74,6.11,63.06-31.63,80.78-50.11,18.34-19.13,35.62-38.29,51.01-59.96,5.08-7.16,17.57-18.56,25.39-9.84,6.31,7.05,6.83,16.83,6.22,26.26-.85,12.95-7.64,23.38-13.37,34.94-34.61,69.82-62.7,141.77-85.77,216.37-8.86,28.65-17.52,56.17-23.89,85.27-2.39,10.92-5.66,35.16-17.52,38.69-5.84,1.74-12.33,1.7-17.18-2.12-4.27-3.36-7.35-10.07-7.69-15.54-1.08-17.8,1.35-33.78,5.47-50.95,8.36-34.84,18.59-68.22,31.65-101.71l44.45-113.97-25.23,21.39Z"/><path d="M382.01,211.97c5.3-13.94,8.44-26.54,10.19-40.48,1.23-9.74.44-20-7.22-26.65-16.14-14.01-45.24,13.45-56.97,23.9-4.77,4.25-8.95,8.59-13.23,13.27l-16.57,18.15c-28.58,31.32-51.74,66.57-73.91,102.95l-13.24-11.94-19.99-16.7c31.62-50.31,67.91-99.09,111.5-138.96,20.65-18.89,64.89-47.79,90.45-26.51,21.37,17.79,26.87,49.02,24.58,75.14l-1.42,16.21c-5.18,59.26-46.12,131.9-84.58,176.66-5.58,6.5-11.72,12.1-18.04,17.56-6.2,5.35-14.76,9.08-22.68,6.14-11.95-4.44-12.78-23.9-8.04-32.18,5.27-9.2,11.79-15.95,18.81-23.95,34.34-39.15,61.63-83.34,80.36-132.6Z"/><path d="M140.46,478.92c-11.05,32.24-21.31,66.15-22.48,100.91-13.94-2.68-26.52-8.98-37.24-18.03,3.28-38.68,12.19-75.83,25.22-112.76,12.12-35.07,26.68-67.97,43.82-101.45,11.97,8.76,23.07,18.13,33.81,28.82-16.38,33.68-30.96,67.05-43.13,102.51Z"/><path d="M24.69,690.73c18.61-11.77,19.76-13.79,29.17-32.85.27-5.83.34-12.8-5.76-15.58l-12.67-1.03c-6.02-.49-9-7.81-9.22-12.64-.26-5.59,3.4-10.62,8.65-13.59,9.49-5.35,19.69-.31,26.81,7.26,23.78,25.28-6.8,67.73-34.56,76.23l-2.41-7.8Z"/><path class="cls-1" d="M1096.82,348.29c-8.59-7.15-23.47,2.56-30.41,8.92-14.66,13.41-26.86,29.81-37.49,46.73-5.49,6.73-24.54,46.91-28.62,58.7-4.38,12.41-9.45,40.25-8.33,53.26.58,5.59,2.36,10.91,5.12,15.71,1.17,2.04,2.67,3.73,4.25,5.38,2.7,2.81,6.02,4.24,9.98,4.06,2.12-.1,4.27-.31,6.27-1.14,5.26-2.18,9.84-5.24,14.31-9.03l8.48-7.19-14.95,38.32c-4.39,11.26-7.83,22.48-10.64,34.2-1.39,5.77-2.2,11.15-1.84,17.13.11,1.84,1.15,4.1,2.58,5.23,1.63,1.28,3.81,1.3,5.78.71,3.99-1.19,5.09-9.34,5.89-13.01,2.14-9.79,5.05-19.04,8.03-28.67,7.76-25.08,17.2-49.28,28.84-72.75,1.93-3.89,4.21-7.39,4.5-11.75.21-3.17.03-6.46-2.09-8.83-2.63-2.93-6.83.9-8.54,3.31-5.18,7.29-10.98,13.73-17.15,20.16-5.96,6.21-17.83,18.9-27.16,16.85-1.34-.3-2.93-1.05-4.04-2.06-1.19-1.09-3.51-5.44-3.51-5.44-3.95-11.01,2.22-33.51,5.81-44.39,10.85-32.86,24.77-54.26,28.19-59.11,7.45-12.23,15.24-24.08,24.85-34.62l5.57-6.1c1.44-1.58,2.84-3.03,4.45-4.46,3.95-3.52,13.73-12.75,19.16-8.04,2.58,2.24,2.84,5.68,2.43,8.96-.59,4.69-1.65,8.92-3.43,13.61-6.3,16.57-15.47,31.42-27.02,44.59-2.36,2.69-4.55,4.96-6.32,8.05-1.59,2.78-1.32,9.33,2.7,10.82,2.66.99,5.54-.26,7.63-2.06,2.13-1.84,4.19-3.72,6.07-5.9,12.93-15.05,26.7-39.48,28.44-59.4l.48-5.45c.77-8.78-1.08-19.28-8.27-25.27Z"/><path class="cls-1" d="M972.96,543.89c6.26-3.96,6.64-4.64,9.81-11.04.09-1.96.11-4.31-1.94-5.24l-4.26-.35c-2.02-.16-3.03-2.63-3.1-4.25-.09-1.88,1.14-3.57,2.91-4.57,3.19-1.8,6.62-.11,9.02,2.44,7.99,8.5-2.29,22.77-11.62,25.63l-.81-2.62Z"/><path class="cls-1" d="M1035.65,502.24c-9.87,10.85-22.3,13.69-36.76,13.22-12.17-.39-24.11-4.24-34.12-10.94-5.04-3.38-3.38-8.97-2.94-14.59l.37-4.64.39-6.17.39-6.6.23-10,.29-4.31c.07-.97.58-2.48,1.49-2.51,1.64,1.08,1.55,3.03,1.68,4.8,1.06,14.52,7.1,27.89,17.3,38.19,7.19,7.26,15.38,10.88,25.77,9.67,8.71-1.01,16.4-5.81,21.23-13.15,10.93-16.62,10.88-38.52-2.56-53.68-5.99-6.75-12.74-12.21-20.06-17.49-7.47-5.39-22.14-15.64-27.73-22.12-12.38-14.37-17.8-27.01-16.19-46.37.97-11.64,5.31-22.24,13.13-30.94,6.6-7.35,15.74-11.92,25.68-12.77,4.09-.35,8.12-.22,12.12.03,8.82.56,16.55,4.16,22.89,9.93,2.98,2.71,1.89,2,2.68,9.97.23,2.34.11,4.37.03,6.65l-.34,10.62-.36,9.18c-.01.32-.51,1.07-.82,1.1s-.76-.64-.83-1c-1.82-10.23-5.46-23.37-12.8-30.93-2.88-2.96-5.81-5.39-9.79-7-7.45-3.02-16.25-3.07-23.65.76-11.64,6.03-18.18,19.75-17.02,32.69.32,6.8,2.96,13.08,7.26,18.26,5.62,6.76,17.9,15.78,25.37,21.02,7.86,5.52,15.31,11,22.64,17.19,16.73,14.14,21.92,31.76,20.43,53.23-.92,13.34-6.35,28.76-15.41,38.71Z"/><path class="cls-2" d="M866.64,528.88c-4.47,3.79-9.04,6.84-14.3,9.02-2,.83-4.14,1.05-6.27,1.14-3.96.18-7.27-1.26-9.97-4.06-1.58-1.64-3.08-3.33-4.25-5.37-2.77-4.8-4.54-10.11-5.12-15.7,4.81.83,9.49,1.21,14.11,1.18l2.42,3.74c.71,1.1,1.67,2.02,2.8,2.7.78.46,1.56.89,2.33,1.06,9.32,2.05,21.19-10.63,27.14-16.83,6.16-6.43,11.97-12.86,17.14-20.14,1.71-2.41,5.9-6.24,8.53-3.3,2.12,2.37,2.3,5.65,2.09,8.82-.28,4.35-2.57,7.85-4.49,11.74-11.63,23.46-21.06,47.63-28.81,72.69-2.98,9.63-5.89,18.87-8.03,28.65-.8,3.67-1.9,11.81-5.89,13-1.96.58-4.14.57-5.77-.71-1.44-1.13-2.47-3.38-2.58-5.22-.36-5.98.45-11.35,1.84-17.12,2.81-11.71,6.25-22.92,10.63-34.17l14.93-38.29-8.48,7.19Z"/><path class="cls-2" d="M927.79,381.06c1.78-4.68,2.83-8.92,3.42-13.6.41-3.27.15-6.72-2.42-8.95-5.42-4.71-15.2,4.52-19.14,8.03-1.6,1.43-3.01,2.88-4.44,4.46l-5.57,6.1c-9.6,10.52-17.38,22.36-24.83,34.59l-4.45-4.01-6.72-5.61c10.62-16.9,22.82-33.29,37.46-46.69,6.94-6.35,21.8-16.06,30.39-8.91,7.18,5.98,9.03,16.47,8.26,25.24l-.48,5.44c-1.74,19.91-15.5,44.31-28.42,59.35-1.87,2.18-3.94,4.06-6.06,5.9-2.08,1.8-4.96,3.05-7.62,2.06-4.02-1.49-4.29-8.03-2.7-10.81,1.77-3.09,3.96-5.36,6.32-8.05,11.54-13.15,20.71-28,27-44.55Z"/><path class="cls-2" d="M846.64,470.74c-3.71,10.83-7.16,22.22-7.55,33.9-4.68-.9-8.91-3.02-12.51-6.06,1.1-12.99,4.1-25.48,8.47-37.88,4.07-11.78,8.96-22.83,14.72-34.08,4.02,2.94,7.75,6.09,11.36,9.68-5.5,11.31-10.4,22.53-14.49,34.44Z"/><path class="cls-2" d="M873.83,500.29c-9.87,10.84-22.28,13.68-36.73,13.21-12.16-.39-24.09-4.23-34.09-10.93-5.04-3.37-3.38-8.97-2.93-14.58l.37-4.64.39-6.16.39-6.59.23-9.99.29-4.31c.07-.97.58-2.48,1.48-2.51,1.64,1.08,1.55,3.02,1.68,4.8,1.06,14.5,7.09,27.86,17.28,38.16,7.18,7.25,15.36,10.87,25.75,9.66,8.7-1.01,16.39-5.81,21.21-13.14,10.92-16.6,10.87-38.49-2.56-53.64-5.98-6.74-12.73-12.2-20.04-17.47-7.46-5.38-22.12-15.62-27.71-22.1-12.37-14.36-17.78-26.98-16.18-46.33.96-11.63,5.31-22.22,13.12-30.91,6.6-7.34,15.72-11.91,25.66-12.76,4.08-.35,8.12-.22,12.11.03,8.82.56,16.53,4.16,22.87,9.92,2.98,2.71,1.89,2,2.68,9.96.23,2.33.11,4.36.03,6.65l-.34,10.62-.36,9.17c-.01.32-.51,1.07-.82,1.09s-.76-.64-.83-1c-1.82-10.22-5.45-23.35-12.79-30.91-2.88-2.96-5.81-5.39-9.78-7-7.44-3.02-16.24-3.06-23.63.76-11.63,6.02-18.16,19.74-17.01,32.66.32,6.79,2.96,13.07,7.26,18.24,5.61,6.75,17.89,15.77,25.35,21.01,7.86,5.51,15.3,10.99,22.62,17.17,16.72,14.13,21.9,31.73,20.42,53.18-.92,13.33-6.35,28.74-15.39,38.68Z"/><path class="cls-2" d="M807.75,541.9c6.25-3.96,6.64-4.63,9.8-11.04.09-1.96.11-4.3-1.94-5.23l-4.26-.35c-2.02-.16-3.02-2.63-3.1-4.25-.09-1.88,1.14-3.57,2.9-4.56,3.19-1.8,6.62-.11,9.01,2.44,7.99,8.49-2.28,22.75-11.61,25.61l-.81-2.62Z"/></svg>