<?xml version="1.0" encoding="UTF-8"?>
<svg id="Layer_1" xmlns="http://www.w3.org/2000/svg" version="1.1" viewBox="0 0 595.3 841.9">
  <!-- Generator: Adobe Illustrator 30.1.0, SVG Export Plug-In . SVG Version: 2.1.1 Build 136)  -->
  <defs>
    <style>
      .st0 {
        fill: #e95578;
      }

      .st1 {
        fill: #f4bd13;
      }

      .st2 {
        fill: #1e6296;
      }

      .st3 {
        fill: #81358a;
      }
    </style>
  </defs>
  <rect class="st0" x="226.4" y="382.4" width="77.7" height="77.7" transform="translate(-223.6 327.1) rotate(-46.9)"/>
  <polygon class="st3" points="532 413.3 532 533.6 411.7 413.3 532 413.3"/>
  <path class="st1" d="M147.8,423.6c0-92.9,66.9-173.4,159.8-173.4s110.1,36.4,119.4,47l55.7-55.7c-44.2-41.8-103.8-67.4-169.4-67.4-136.3,0-246.8,110.5-246.8,246.8,0,104.4,24.9,123.5,65.6,167.5l55.8-55.8c-25-29.4-40.1-67.4-40.1-109h0Z"/>
  <path class="st2" d="M466.4,499c-7.1,14.1-16,27-26.6,38.5-3.2,3.5-6.5,6.8-10,10-30,27.5-69.9,44.4-113.8,44.4s-84.4-17-114.4-44.9l-55.5,55.5c44,40.5,102.7,65.3,167.2,65.3s125.2-25.6,169.4-67.4c3.4-3.2,6.8-6.6,10-10,10.6-11.2,20.2-23.5,28.5-36.5l-54.9-54.9h.1Z"/>
</svg>