<?xml version="1.0" encoding="UTF-8"?>
<svg id="Layer_1" xmlns="http://www.w3.org/2000/svg" version="1.1" viewBox="0 0 595.3 841.9">
  <!-- Generator: Adobe Illustrator 30.1.0, SVG Export Plug-In . SVG Version: 2.1.1 Build 136)  -->
  <defs>
    <style>
      .st0 {
        fill: #e95578;
      }

      .st1 {
        fill: #f4bd13;
      }

      .st2 {
        fill: #1e6296;
      }

      .st3 {
        fill: #81358a;
      }
    </style>
  </defs>
  <rect class="st0" x="226.4" y="347.6" width="77.7" height="77.7" transform="translate(-198.2 316.3) rotate(-46.9)"/>
  <polygon class="st3" points="528.8 386.5 528.8 506.8 408.5 386.5 528.8 386.5"/>
  <path class="st1" d="M147.8,389.2c0-92.9,75.3-168.2,168.2-168.2s81.4,15.8,111,41.8l55.7-55.7c-44.2-41.8-103.8-67.4-169.4-67.4-136.3,0-246.8,110.5-246.8,246.8s24.9,123.5,65.6,167.5l55.8-55.8c-25-29.4-40.1-67.4-40.1-109Z"/>
  <path class="st2" d="M439.8,503c-3.2,3.5-6.5,6.8-10,10-30,27.5-69.9,44.4-113.8,44.4s-84.4-17-114.4-44.9l-55.5,55.5c44,40.5,102.7,65.3,167.2,65.3s125.2-25.6,169.4-67.4c3.4-3.2,6.8-6.6,10-10,9.3-9.8,17.8-20.4,25.4-31.7l-54.4-54.4c-6.6,12-14.6,23.2-23.8,33.2Z"/>
</svg>