<?xml version="1.0" encoding="UTF-8"?>
<svg id="Layer_1" xmlns="http://www.w3.org/2000/svg" version="1.1" viewBox="0 0 512 512">
  <!-- Generator: Adobe Illustrator 30.1.0, SVG Export Plug-In . SVG Version: 2.1.1 Build 136)  -->
  <defs>
    <style>
      .st0 {
        fill: #fff;
        stroke: #000;
        stroke-miterlimit: 10;
      }
    </style>
  </defs>
  <circle class="st0" cx="261" cy="252.5" r="226.2"/>
  <g>
    <path d="M266.1,297.1c-12.1,13.2-27.1,16.6-44.8,16.1s-29.3-5.2-41.6-13.3c-6.3-4.1-4.1-10.9-3.5-17.8l.5-5.7.5-7.4.5-8.1.3-12.2.3-5.2c0-1.3.7-3,1.8-3.1,1.9,1.4,1.9,3.6,2.1,5.8,1.4,17.8,8.7,33.9,21,46.6,8.8,8.9,18.8,13.2,31.2,11.7,10.6-1.3,19.9-7.1,25.9-15.9,13.3-20.3,13.2-46.8-3.1-65.3-7.3-8.2-15.5-14.9-24.4-21.3-9.1-6.5-27-19-33.7-27-15-17.5-21.6-32.9-19.7-56.3,1.3-14.1,6.4-27,15.9-37.7,8.1-9,19.1-14.5,31.2-15.5,5-.5,9.9-.3,14.8,0,10.7.7,19.4,6.2,27.8,12.1s3.4,17.4,3.3,20.2l-.5,13-.5,11.2c0,.5-.6,1.4-1,1.4s-.9-.8-1-1.3c-2.3-12.4-6.6-28.4-15.6-37.7-3.5-3.5-7.1-6.5-12-8.4-9.1-3.6-19.7-3.6-28.7.9-14.1,7.3-22.1,24-20.7,39.8.3,8.2,3.5,15.8,8.9,22.2,6.8,8.2,21.8,19.3,30.9,25.5,9.6,6.7,18.7,13.3,27.5,21,20.4,17.1,26.7,38.6,24.8,64.8-1.1,16.2-7.7,35.1-18.8,47h.5,0Z"/>
    <path d="M257.3,331.9c-5.4,4.6-11,8.3-17.4,11-2.4,1-5.1,1.4-7.6,1.4-4.8.3-8.9-1.5-12.2-5-1.9-1.9-3.8-4.1-5.2-6.5-3.4-5.8-5.5-12.2-6.3-19.1,5.8,1,11.6,1.5,17.1,1.5l4.3,6.6c1.6.8,3.3,2.2,4.9,2.4,11.3,2.4,25.9-13,33-20.5,7.4-7.9,14.6-15.7,20.8-24.5,2.1-3,7.2-7.5,10.4-4.1,2.5,3,2.8,6.8,2.5,10.7-.3,5.2-3.1,9.6-5.5,14.4-14.1,28.6-25.6,58-35.1,88.5-3.5,11.7-7.2,23-9.8,35-.9,4.4-2.4,14.5-7.2,15.8-2.4.7-5.1.7-7.1-.8-1.7-1.4-3-4.1-3.2-6.3-.5-7.3.5-13.9,2.3-20.8,3.4-14.2,7.6-27.9,13-41.7l18.2-46.6-10.3,8.8h.3-.1l.2-.2Z"/>
    <path d="M331.8,151.9c2.2-5.7,3.4-10.9,4.2-16.6.5-4,.2-8.2-3-10.9-6.6-5.7-18.6,5.5-23.4,9.8-4.8,4.3-3.6,3.5-5.4,5.4l-6.8,7.4c-11.7,12.9-21.2,27.2-30.3,42.1l-5.4-4.9-8.2-6.8c13-20.6,27.8-40.6,45.7-57,8.4-7.7,26.4-19.6,37-10.8,8.8,7.3,11,20,10.1,30.8l-.6,6.6c-2.2,24.3-18.8,54-34.6,72.2-2.4,2.6-4.8,5-7.3,7.2-2.5,2.3-6,3.6-9.2,2.4-4.9-1.8-5.2-9.8-3.3-13.1s4.8-6.5,7.7-9.8c14-16.1,25.3-34.1,32.9-54.2h-.2v.3h0Z"/>
    <path d="M233.1,261.2c-4.6,13.2-8.8,27-9.1,41.2-5.7-1.1-10.8-3.6-15.3-7.3,1.4-15.8,5-31.1,10.3-46.1,5-14.4,10.9-27.8,17.9-41.6,4.9,3.5,9.5,7.3,13.9,11.7-6.7,13.9-12.8,27.5-17.8,41.9h.1v.2Z"/>
    <path d="M185.7,347.8c7.6-4.8,8.1-5.7,12-13.4,0-2.4.2-5.2-2.4-6.3l-5.2-.5c-2.4-.2-3.6-3.2-3.8-5.2s1.4-4.3,3.5-5.6c3.9-2.3,8.1,0,11,3,9.7,10.4-2.7,27.7-14.1,31.2l-.9-3.2h-.1Z"/>
  </g>
</svg>