<?xml version="1.0" encoding="UTF-8"?>
<svg id="Layer_1" xmlns="http://www.w3.org/2000/svg" version="1.1" viewBox="0 0 301.9 109.5">
  <!-- Generator: Adobe Illustrator 30.1.0, SVG Export Plug-In . SVG Version: 2.1.1 Build 136)  -->
  <defs>
    <style>
      .st0 {
        fill: #aa1917;
      }

      .st1 {
        fill: #e55f65;
      }

      .st2 {
        fill: #0069b4;
      }
    </style>
  </defs>
  <g>
    <polyline class="st1" points="4.5 20.3 29.6 20.3 59.1 39 30.6 39 4.1 20.3"/>
    <polygon class="st0" points="3.5 22.2 29.9 41 30 67.5 4 45 3.5 22.2"/>
  </g>
  <g>
    <path class="st0" d="M68.9,31.2h11.7c8,0,9.5,5.8,9.5,9.8,0,5.8-2.8,9.8-10.3,9.8h-3.3v12.6h-7.6V31.2s0,0,0,0ZM76.5,45.3h2.1c3,0,3.8-1.9,3.8-4.1s-.8-4.4-3.9-4.4h-1.9s0,8.4,0,8.4ZM106.3,31.3h18.6v6.2h-11.1v6.5h10.4v6.1h-10.4v7.4h11.6v6.1h-19.1V31.2s0,0,0,0ZM141,31.3h7.6v12.7h0l7.1-12.7h8.2l-8.5,13.9,9.5,18.3h-8.5l-5.8-12.2-2,3.1v9h-7.6V31.3s0,0,0,0Z"/>
    <path class="st2" d="M202.8,39.3c-1-4.5-4.6-6.8-9.2-6.7-7.7.1-10.8,6.5-10.7,13.2.1,7.4,3.5,13.4,11.2,13.3,5.6,0,8.9-4.1,9.1-9.5h4.3c-.7,8-5.6,12.9-13.7,13.1-10,.2-15-7.2-15.2-16.6-.2-9.4,5-17.1,15-17.2,6.7-.1,12.4,3.4,13.4,10.3h-4.3c0,0,0,0,0,0ZM238.8,29.8c10.3,0,15.4,8.1,15.4,16.9s-5.2,16.9-15.4,16.9c-10.3,0-15.4-8.1-15.4-16.9s5.2-16.9,15.4-16.9M238.8,59.9c7.9,0,11.2-6.8,11.2-13.3s-3.3-13.3-11.2-13.3-11.2,6.8-11.2,13.3c0,6.5,3.3,13.3,11.2,13.3M271.7,30.5h4.6l17,26.2h0v-26.2h4.1v32.2h-4.7l-16.8-25.9h0v25.9h-4.1V30.5Z"/>
    <g>
      <path class="st1" d="M71.7,78.1c0-3.1,2.6-6,5.7-6s2.9.9,3.5,2.1l-.6.3c-.6-1.1-1.4-1.8-2.9-1.8-2.8,0-4.9,2.7-4.9,5.4s1.4,3.3,3.2,3.3,2.4-.6,3.2-1.4l.5.4c-.9.9-2,1.7-3.8,1.7s-3.9-1.5-3.9-3.9"/>
      <path class="st1" d="M86,78.9c0-2.2,1.9-4.2,4.1-4.2s3.1,1.3,3.1,3.1-2,4.2-4.2,4.2-3.1-1.3-3.1-3.1M92.5,77.8c0-1.6-1-2.5-2.5-2.5s-3.4,1.7-3.4,3.6,1,2.5,2.5,2.5,3.4-1.6,3.4-3.6"/>
      <path class="st1" d="M101.1,74.8h.7l-.3,1.3c.7-.8,1.5-1.5,2.6-1.5s2.3.9,2.3,2.2,0,.7-.2,1l-1,3.9h-.7l1.1-4c0-.3.1-.6.1-.9,0-1-.7-1.7-1.8-1.7s-2.5,1.1-2.9,2.6l-1.1,3.9h-.7l1.9-7h0Z"/>
      <path class="st1" d="M113.3,80.5c0-.2,0-.5,0-.7l1.2-4.4h-1l.2-.6h1l.6-2.2h.7l-.6,2.2h2.4l-.2.6h-2.4l-1.2,4.5c0,.2,0,.4,0,.6,0,.6.4.8,1.1.8s.6,0,1-.2l-.2.7c-.4.1-.6.2-1,.2-.9,0-1.7-.4-1.7-1.4"/>
      <path class="st1" d="M122.8,80c0-1.6,1.3-2.5,3.1-2.5s2,.2,2.7.4v-.2c.1-.2.2-.5.2-.7,0-1.1-.7-1.6-2.1-1.6s-1.4.1-2,.4v-.6c.6-.2,1.2-.4,2.1-.4,1.7,0,2.7.8,2.7,2.2s0,.6-.1.9l-1.1,4h-.7l.3-1.2c-.7.8-1.6,1.4-2.8,1.4s-2.3-.7-2.3-2M128.4,79l.2-.6c-.7-.2-1.6-.3-2.6-.3s-2.3.8-2.3,1.8.7,1.4,1.7,1.4,2.7-.9,3.1-2.3"/>
      <path class="st1" d="M137.6,74.8h.7l-1.9,7h-.7l1.9-7ZM138.2,72.1h.8l-.2.9h-.8l.2-.9Z"/>
      <path class="st1" d="M145.8,74.8h.7l-.3,1.3c.7-.8,1.5-1.5,2.6-1.5s2.3.9,2.3,2.2,0,.7-.2,1l-1,3.9h-.7l1.1-4c0-.3.1-.6.1-.9,0-1-.7-1.7-1.8-1.7s-2.5,1.1-2.9,2.6l-1.1,3.9h-.7l1.9-7h0Z"/>
      <path class="st1" d="M158.3,78.5c0,.2,0,.3,0,.5,0,1.4.9,2.3,2.3,2.3s1.7-.4,2.4-.9l.4.5c-.7.6-1.5,1.1-2.8,1.1s-3-1.2-3-2.9,1.8-4.4,4-4.4,2.6,1.2,2.6,2.7,0,.9-.2,1.2h-5.7,0ZM158.5,77.9h5.1c0-.1,0-.3,0-.6,0-1.1-.6-2.1-2-2.1s-2.8,1.2-3.1,2.7"/>
      <path class="st1" d="M172,74.8h.7l-.5,2c.9-1.3,2.1-2.2,3.6-2.1l-.2.7h0c-1.6,0-3.3,1.3-3.9,3.5l-.8,2.9h-.7l1.9-7h0Z"/>
      <path class="st1" d="M186.8,80.3c-1.1,1.1-2.1,1.6-3.5,1.6s-2.7-.9-2.7-2.4,1.1-2.7,3.4-3.3c-.4-.6-.6-1.2-.6-1.8,0-1.4,1.2-2.4,2.5-2.4s2.2.8,2.2,2-.7,2-3.1,2.6l1.9,2.8c.5-.6,1.1-1.4,1.6-2.3l.5.3c-.6,1-1.1,1.8-1.7,2.4l1.2,1.8-.5.4-1.2-1.7h0ZM186.5,79.9l-2.2-3.1c-2.1.5-3,1.5-3,2.7s.8,1.8,2.1,1.8,2.1-.5,3.1-1.4M187.4,74.1c0-.8-.6-1.4-1.6-1.4s-1.8.8-1.8,1.8.2,1.1.6,1.7c2.1-.5,2.7-1.3,2.7-2.1"/>
      <polygon class="st1" points="197.6 72.2 198.3 72.2 195.9 81.1 201.5 81.1 201.4 81.8 195 81.8 197.6 72.2"/>
      <path class="st1" d="M207.7,78.9c0-2.2,1.9-4.2,4.1-4.2s3.1,1.3,3.1,3.1-2,4.2-4.2,4.2-3.1-1.3-3.1-3.1M214.2,77.8c0-1.6-1-2.5-2.5-2.5s-3.4,1.7-3.4,3.6,1,2.5,2.5,2.5,3.4-1.6,3.4-3.6"/>
      <path class="st1" d="M220.5,82.7l.5-.5c.7.7,1.7,1.2,2.8,1.2s1.7-.3,2.2-.8c.5-.5.7-1.1,1-1.8l.2-.9c-.7.7-1.6,1.4-2.9,1.4s-2.9-1-2.9-2.7,2-3.9,4-3.9,2.3.9,2.7,1.9l.4-1.7h.7l-1.6,6.1c-.3,1-.6,1.6-1.1,2.1-.7.7-1.5,1-2.7,1s-2.5-.5-3.3-1.3M227.8,77.5c0-1.1-.9-2.2-2.5-2.2s-3.2,1.3-3.2,3.2,1.1,2.1,2.3,2.1c1.8,0,3.3-1.6,3.3-3.1"/>
      <path class="st1" d="M236.8,74.8h.7l-1.9,7h-.7l1.9-7ZM237.4,72.1h.8l-.2.9h-.8l.2-.9Z"/>
      <path class="st1" d="M242.8,80.8l.5-.5c.8.7,1.6,1.1,2.6,1.1s1.8-.5,1.8-1.4-.3-.9-1.5-1.4c-1.3-.5-2-1-2-1.9s1-2,2.6-2,1.9.4,2.5.9l-.4.5c-.5-.4-1.3-.8-2.2-.8-1.2,0-1.8.6-1.8,1.3s.3.9,1.6,1.4c1.4.5,1.9,1.1,1.9,1.9,0,1.2-1.2,2.1-2.6,2.1s-2.2-.4-3-1.2"/>
      <path class="st1" d="M255.5,80.6c0-.2,0-.5,0-.7l1.2-4.4h-1l.2-.6h1l.6-2.2h.7l-.6,2.2h2.4l-.2.6h-2.4l-1.2,4.5c0,.2,0,.4,0,.6,0,.6.4.8,1.1.8s.6,0,1-.2l-.2.7c-.4.1-.6.2-1,.2-.9,0-1.7-.4-1.7-1.4"/>
      <path class="st1" d="M267,74.8h.7l-1.9,7h-.7l1.9-7ZM267.7,72.1h.8l-.2.9h-.8l.2-.9Z"/>
      <path class="st1" d="M273.7,79c0-2.3,1.9-4.3,4.1-4.3s2.3.8,2.7,1.7l-.6.3c-.4-.7-1.1-1.4-2.2-1.4-1.8,0-3.3,1.7-3.3,3.6s1.1,2.4,2.4,2.4,1.6-.4,2.3-1l.4.4c-.7.7-1.6,1.2-2.8,1.2s-3-1.1-3-3"/>
      <path class="st1" d="M285.7,80.8l.5-.5c.8.7,1.6,1.1,2.6,1.1s1.8-.5,1.8-1.4-.3-.9-1.5-1.4c-1.3-.5-2-1-2-1.9s1-2,2.6-2,1.9.4,2.5.9l-.4.5c-.5-.4-1.3-.8-2.2-.8-1.2,0-1.8.6-1.8,1.3s.3.9,1.6,1.4c1.4.5,1.9,1.1,1.9,1.9,0,1.2-1.2,2.1-2.6,2.1s-2.2-.4-3-1.2"/>
    </g>
  </g>
</svg>